<?xml version="1.0" standalone="no"?>
<!DOCTYPE svg PUBLIC "-//W3C//DTD SVG 20010904//EN"
 "http://www.w3.org/TR/2001/REC-SVG-20010904/DTD/svg10.dtd">
<svg version="1.0" xmlns="http://www.w3.org/2000/svg"
 width="1200.000000pt" height="303.000000pt" viewBox="0 0 1200.000000 303.000000"
 preserveAspectRatio="xMidYMid meet">

<g transform="translate(0.000000,303.000000) scale(0.100000,-0.100000)"
fill="#000000" stroke="none">
<path d="M855 2650 c-258 -119 -471 -222 -472 -227 -2 -6 14 -305 36 -664 22
-360 42 -678 43 -706 2 -29 6 -53 11 -53 4 0 7 4 7 9 0 9 799 1739 841 1824
11 20 16 37 12 36 -5 -1 -219 -99 -478 -219z"/>
<path d="M1962 2861 c1 -4 197 -425 433 -935 412 -889 430 -925 433 -879 2 26
22 348 45 715 l42 667 -405 187 c-223 103 -438 202 -478 221 -41 18 -72 29
-70 24z"/>
<path d="M4125 2493 c-3 -10 -146 -414 -317 -898 -171 -484 -313 -886 -315
-892 -4 -10 34 -13 170 -13 l175 0 74 223 75 222 345 3 346 2 74 -222 75 -223
176 -3 176 -2 -44 122 c-24 68 -169 477 -322 910 l-278 788 -201 0 c-183 0
-203 -2 -209 -17z m339 -710 c65 -197 121 -364 124 -370 3 -10 -51 -13 -252
-13 -141 0 -256 3 -256 7 0 28 244 733 253 733 7 0 64 -157 131 -357z"/>
<path d="M9180 1600 l0 -910 160 0 160 0 0 910 0 910 -160 0 -160 0 0 -910z"/>
<path d="M1474 1734 l-171 -414 343 0 344 0 -19 48 c-41 102 -311 753 -318
766 -5 10 -67 -128 -179 -400z"/>
<path d="M5815 2056 c-110 -27 -222 -112 -260 -197 -10 -21 -24 -39 -32 -39
-10 0 -13 25 -13 115 l0 115 -150 0 -150 0 0 -680 0 -680 160 0 160 0 0 433
c0 274 4 447 11 472 14 54 63 124 107 156 53 37 107 53 184 52 83 -1 144 -28
192 -85 65 -76 66 -82 66 -580 l0 -448 161 0 160 0 -3 503 c-3 479 -5 505 -25
564 -69 206 -227 315 -452 312 -36 0 -88 -6 -116 -13z"/>
<path d="M6906 2054 c-147 -35 -274 -141 -344 -284 -67 -136 -77 -188 -77
-395 0 -143 4 -193 18 -245 32 -113 75 -189 152 -266 115 -116 233 -160 415
-152 86 4 115 9 162 30 62 29 146 101 179 154 11 19 25 34 30 34 5 0 9 -71 9
-163 0 -190 -11 -238 -70 -297 -59 -59 -135 -83 -255 -84 -88 0 -107 4 -163
29 -57 26 -114 75 -140 121 -10 18 -16 17 -151 -16 -106 -26 -141 -38 -141
-49 0 -30 58 -116 112 -168 65 -61 152 -107 257 -135 110 -29 343 -29 455 1
210 56 333 158 389 322 22 63 22 73 25 812 l3 747 -158 0 -158 0 3 -106 c2
-59 -1 -111 -6 -116 -6 -6 -22 8 -42 39 -71 104 -146 162 -245 188 -72 18
-180 18 -259 -1z m344 -265 c129 -58 202 -205 203 -409 1 -268 -118 -423 -323
-424 -131 0 -224 60 -281 179 -35 74 -49 144 -49 249 1 201 86 363 216 410 60
22 180 20 234 -5z"/>
<path d="M10020 2055 c-131 -26 -254 -94 -320 -176 -34 -43 -90 -145 -90 -166
0 -15 11 -18 153 -38 139 -19 142 -19 155 9 19 42 71 93 120 117 39 19 64 23
142 24 113 0 164 -21 207 -86 37 -57 44 -143 13 -181 -27 -35 -57 -43 -260
-67 -375 -46 -517 -124 -565 -307 -40 -154 1 -313 107 -410 134 -123 392 -152
568 -64 60 30 131 95 158 144 17 31 17 31 20 -66 l3 -98 154 0 155 0 0 484 c0
281 -4 506 -10 537 -15 79 -63 170 -116 219 -59 54 -170 106 -268 125 -93 18
-237 18 -326 0z m379 -985 c-25 -58 -92 -123 -157 -153 -37 -17 -66 -21 -137
-21 -156 1 -235 61 -235 179 0 119 78 172 307 206 76 12 161 28 188 38 l50 16
3 -107 c2 -92 0 -115 -19 -158z"/>
<path d="M11393 2056 c-87 -28 -155 -87 -198 -173 -14 -29 -30 -53 -36 -53 -5
0 -9 47 -9 110 l0 110 -155 0 -155 0 0 -680 0 -680 163 0 162 0 0 438 0 437
28 57 c51 104 139 158 267 166 41 2 94 -1 118 -6 l42 -10 0 139 c0 76 0 142 0
147 0 13 -183 12 -227 -2z"/>
<path d="M7880 1573 c0 -524 4 -562 58 -669 78 -154 214 -234 397 -234 175 0
321 82 388 218 12 23 25 42 29 42 4 0 8 -54 8 -120 l0 -120 155 0 155 0 0 680
0 680 -160 0 -160 0 0 -437 0 -438 -24 -51 c-53 -113 -132 -166 -258 -172 -93
-5 -149 17 -202 80 -65 76 -66 82 -66 575 l0 443 -160 0 -160 0 0 -477z"/>
<path d="M1106 858 c-8 -18 -37 -88 -65 -155 -28 -68 -51 -127 -51 -132 0 -5
141 -89 313 -187 171 -98 319 -182 328 -187 13 -8 90 32 345 178 181 103 330
188 331 189 1 1 -28 75 -65 164 l-66 162 -529 0 -528 0 -13 -32z"/>
</g>
</svg>
