<?xml version="1.0" standalone="no"?>
<!DOCTYPE svg PUBLIC "-//W3C//DTD SVG 20010904//EN"
 "http://www.w3.org/TR/2001/REC-SVG-20010904/DTD/svg10.dtd">
<svg version="1.0" xmlns="http://www.w3.org/2000/svg"
 width="700.000000pt" height="633.000000pt" viewBox="0 0 700.000000 633.000000"
 preserveAspectRatio="xMidYMid meet">

<g transform="translate(0.000000,633.000000) scale(0.100000,-0.100000)"
fill="#000000" stroke="none">
<path d="M3378 5791 c-118 -38 -223 -150 -249 -265 -50 -227 87 -438 312 -478
216 -38 425 130 437 351 6 98 -11 167 -57 238 -92 143 -277 207 -443 154z
m216 -215 c44 -18 66 -52 66 -99 0 -54 -43 -97 -97 -97 -21 0 -44 4 -51 9 -9
5 -32 -12 -74 -56 -63 -65 -84 -75 -95 -47 -4 12 13 35 59 80 51 50 63 66 55
79 -11 21 -3 81 15 102 12 15 63 42 81 43 4 0 23 -6 41 -14z"/>
<path d="M3513 5535 c-16 -11 -23 -26 -23 -50 0 -34 30 -79 38 -56 2 6 14 11
26 11 12 0 28 6 34 12 10 10 15 10 21 -1 6 -9 10 -5 15 15 15 59 -60 105 -111
69z"/>
<path d="M1900 5397 c-117 -34 -202 -103 -252 -205 -31 -62 -33 -74 -33 -167
0 -89 3 -107 28 -161 98 -211 362 -288 561 -161 180 114 226 380 95 551 -92
119 -265 182 -399 143z m288 -375 l3 -122 -198 2 -198 3 -3 109 c-1 61 0 116
2 123 4 11 45 13 198 11 l193 -3 3 -123z"/>
<path d="M3511 4774 c0 -11 3 -14 6 -6 3 7 2 16 -1 19 -3 4 -6 -2 -5 -13z"/>
<path d="M4010 4730 c-26 -26 -27 -84 -1 -107 19 -16 19 -17 -5 -35 -32 -26
-54 -69 -54 -108 l0 -30 110 0 110 0 0 25 c0 38 -24 89 -53 112 -26 20 -26 21
-7 38 20 18 27 69 12 91 -11 16 -48 34 -71 34 -12 0 -30 -9 -41 -20z"/>
<path d="M3842 4708 c-17 -17 -15 -68 4 -89 14 -16 14 -18 -4 -28 -19 -10 -52
-77 -52 -106 0 -12 15 -15 68 -15 l67 0 16 50 c15 47 14 50 -4 69 -19 18 -19
21 -3 36 21 22 20 58 -2 78 -22 20 -73 22 -90 5z"/>
<path d="M4186 4704 c-20 -19 -20 -53 -1 -81 13 -18 12 -22 -4 -37 -18 -16
-18 -20 -3 -67 l16 -49 63 0 63 0 0 35 c0 24 -9 45 -30 68 -26 30 -28 36 -15
47 17 14 20 53 5 81 -13 24 -72 26 -94 3z"/>
<path d="M2814 4535 c-10 -8 -29 -15 -41 -15 -12 0 -30 -8 -40 -19 -10 -10
-31 -21 -46 -25 -36 -9 -54 -47 -39 -81 l12 -25 197 2 198 3 0 45 c0 42 -2 46
-32 55 -17 6 -40 18 -51 28 -10 9 -30 17 -44 17 -14 0 -31 7 -38 15 -16 19
-51 19 -76 0z"/>
<path d="M5470 4511 c0 -6 9 -11 20 -11 55 0 110 -57 110 -115 0 -14 5 -25 10
-25 31 0 -4 109 -43 135 -32 21 -97 32 -97 16z"/>
<path d="M5011 4494 c0 -11 3 -14 6 -6 3 7 2 16 -1 19 -3 4 -6 -2 -5 -13z"/>
<path d="M1991 4484 c0 -11 3 -14 6 -6 3 7 2 16 -1 19 -3 4 -6 -2 -5 -13z"/>
<path d="M3511 4484 c0 -11 3 -14 6 -6 3 7 2 16 -1 19 -3 4 -6 -2 -5 -13z"/>
<path d="M5470 4470 c0 -5 10 -10 23 -10 31 0 67 -39 67 -73 0 -15 5 -27 10
-27 23 0 10 62 -19 91 -28 28 -81 41 -81 19z"/>
<path d="M5011 4424 c0 -11 3 -14 6 -6 3 7 2 16 -1 19 -3 4 -6 -2 -5 -13z"/>
<path d="M5470 4432 c0 -4 10 -12 23 -17 12 -6 23 -20 25 -32 2 -13 8 -23 13
-23 15 0 10 47 -7 64 -16 16 -54 22 -54 8z"/>
<path d="M5479 4384 c-9 -12 -26 -15 -63 -12 -28 3 -58 8 -67 12 -13 5 -18 1
-23 -20 -5 -19 0 -37 18 -65 28 -41 34 -94 14 -102 -7 -3 -4 -6 8 -6 11 -1 25
-6 30 -11 7 -7 11 -6 11 5 0 8 -4 15 -9 15 -4 0 -8 9 -8 21 0 15 4 19 15 15
46 -19 49 -18 25 2 l-25 22 32 -17 c17 -10 29 -21 27 -25 -3 -4 2 -5 10 -2 32
12 8 74 -45 118 l-32 27 42 -2 c41 -3 85 21 63 35 -5 3 -16 -1 -23 -10z m-105
-84 c11 -14 6 -11 -11 7 -18 18 -33 38 -33 45 0 7 6 4 12 -7 6 -11 20 -31 32
-45z"/>
<path d="M763 4282 c-176 -63 -288 -249 -253 -424 72 -373 562 -440 723 -100
29 61 32 76 32 162 0 82 -4 103 -27 153 -38 80 -115 158 -191 193 -81 37 -204
44 -284 16z m247 -362 l0 -220 -120 0 -120 0 0 220 0 220 120 0 120 0 0 -220z"/>
<path d="M790 3920 l0 -171 98 3 97 3 3 168 2 167 -100 0 -100 0 0 -170z m190
85 l0 -55 -90 0 -90 0 0 55 0 55 90 0 90 0 0 -55z m0 -90 c0 -25 -1 -25 -90
-25 -89 0 -90 0 -90 25 0 25 1 25 90 25 89 0 90 0 90 -25z"/>
<path d="M5999 4286 c-111 -43 -191 -114 -237 -214 -23 -49 -27 -70 -27 -152
0 -86 3 -101 32 -162 54 -115 146 -187 270 -213 210 -44 411 95 453 313 31
159 -64 339 -218 410 -69 31 -212 41 -273 18z m291 -356 l0 -150 -165 0 -165
0 0 150 0 150 165 0 165 0 0 -150z"/>
<path d="M6140 4050 c0 -5 5 -10 10 -10 6 0 10 5 10 10 0 6 -4 10 -10 10 -5 0
-10 -4 -10 -10z"/>
<path d="M6190 4050 c0 -5 5 -10 10 -10 6 0 10 5 10 10 0 6 -4 10 -10 10 -5 0
-10 -4 -10 -10z"/>
<path d="M5980 3930 l0 -80 61 0 62 0 -27 21 c-33 26 -37 88 -6 119 l20 20
-55 0 -55 0 0 -80z"/>
<path d="M6177 3995 c43 -30 37 -110 -10 -133 -18 -9 -11 -11 41 -11 l62 -1 0
80 0 80 -57 0 c-54 0 -56 -1 -36 -15z"/>
<path d="M6090 3970 c-11 -11 -20 -28 -20 -38 0 -46 79 -71 100 -32 13 23 5
25 -30 5 -37 -21 -40 -19 -40 25 0 44 7 47 50 25 33 -17 40 -7 12 18 -25 22
-48 21 -72 -3z"/>
<path d="M6140 3820 c0 -5 5 -10 10 -10 6 0 10 5 10 10 0 6 -4 10 -10 10 -5 0
-10 -4 -10 -10z"/>
<path d="M6190 3820 c0 -5 5 -10 10 -10 6 0 10 5 10 10 0 6 -4 10 -10 10 -5 0
-10 -4 -10 -10z"/>
<path d="M5011 4204 c0 -11 3 -14 6 -6 3 7 2 16 -1 19 -3 4 -6 -2 -5 -13z"/>
<path d="M1991 4194 c0 -11 3 -14 6 -6 3 7 2 16 -1 19 -3 4 -6 -2 -5 -13z"/>
<path d="M3511 4194 c0 -11 3 -14 6 -6 3 7 2 16 -1 19 -3 4 -6 -2 -5 -13z"/>
<path d="M4528 4173 c7 -3 16 -2 19 1 4 3 -2 6 -13 5 -11 0 -14 -3 -6 -6z"/>
<path d="M4598 4173 c7 -3 16 -2 19 1 4 3 -2 6 -13 5 -11 0 -14 -3 -6 -6z"/>
<path d="M4818 4173 c7 -3 16 -2 19 1 4 3 -2 6 -13 5 -11 0 -14 -3 -6 -6z"/>
<path d="M2000 4140 c0 -5 5 -10 10 -10 6 0 10 5 10 10 0 6 -4 10 -10 10 -5 0
-10 -4 -10 -10z"/>
<path d="M2070 4140 c0 -5 5 -10 10 -10 6 0 10 5 10 10 0 6 -4 10 -10 10 -5 0
-10 -4 -10 -10z"/>
<path d="M2150 4140 c0 -5 5 -10 10 -10 6 0 10 5 10 10 0 6 -4 10 -10 10 -5 0
-10 -4 -10 -10z"/>
<path d="M2220 4140 c0 -5 5 -10 10 -10 6 0 10 5 10 10 0 6 -4 10 -10 10 -5 0
-10 -4 -10 -10z"/>
<path d="M2290 4140 c0 -5 5 -10 10 -10 6 0 10 5 10 10 0 6 -4 10 -10 10 -5 0
-10 -4 -10 -10z"/>
<path d="M2360 4140 c0 -5 5 -10 10 -10 6 0 10 5 10 10 0 6 -4 10 -10 10 -5 0
-10 -4 -10 -10z"/>
<path d="M2440 4140 c0 -5 5 -10 10 -10 6 0 10 5 10 10 0 6 -4 10 -10 10 -5 0
-10 -4 -10 -10z"/>
<path d="M4371 4114 c0 -11 3 -14 6 -6 3 7 2 16 -1 19 -3 4 -6 -2 -5 -13z"/>
<path d="M3550 4100 c0 -5 5 -10 10 -10 6 0 10 5 10 10 0 6 -4 10 -10 10 -5 0
-10 -4 -10 -10z"/>
<path d="M3630 4100 c0 -5 5 -10 10 -10 6 0 10 5 10 10 0 6 -4 10 -10 10 -5 0
-10 -4 -10 -10z"/>
<path d="M3700 4100 c0 -5 5 -10 10 -10 6 0 10 5 10 10 0 6 -4 10 -10 10 -5 0
-10 -4 -10 -10z"/>
<path d="M3770 4100 c0 -5 5 -10 10 -10 6 0 10 5 10 10 0 6 -4 10 -10 10 -5 0
-10 -4 -10 -10z"/>
<path d="M3840 4100 c0 -5 5 -10 10 -10 6 0 10 5 10 10 0 6 -4 10 -10 10 -5 0
-10 -4 -10 -10z"/>
<path d="M3920 4100 c0 -5 5 -10 10 -10 6 0 10 5 10 10 0 6 -4 10 -10 10 -5 0
-10 -4 -10 -10z"/>
<path d="M1686 4061 c-29 -30 -15 -39 18 -12 18 15 46 8 46 -12 0 -24 -46 -60
-68 -53 -26 8 -37 -8 -17 -24 24 -20 60 -4 90 40 26 38 27 41 11 65 -22 33
-46 32 -80 -4z"/>
<path d="M4371 4044 c0 -11 3 -14 6 -6 3 7 2 16 -1 19 -3 4 -6 -2 -5 -13z"/>
<path d="M1616 3987 c-28 -37 -33 -66 -14 -85 19 -19 53 -14 78 13 27 29 8 35
-22 8 -17 -16 -20 -16 -35 0 -16 16 -15 19 12 47 22 23 34 28 53 23 18 -4 23
-2 20 8 -2 8 -18 15 -35 17 -25 3 -36 -3 -57 -31z"/>
<path d="M3931 3971 c-1 -7 -12 -22 -27 -33 -34 -27 -30 -76 7 -97 60 -34 110
53 56 96 -13 10 -26 25 -30 33 -4 11 -6 12 -6 1z m31 -48 c32 -29 16 -73 -27
-73 -43 0 -58 39 -28 72 20 22 31 23 55 1z"/>
<path d="M2448 3944 c-37 -19 -45 -50 -21 -83 25 -33 56 -38 82 -12 34 34 24
77 -24 104 -6 3 -22 -1 -37 -9z m41 -14 c25 -13 33 -37 21 -61 -12 -21 -50
-25 -68 -7 -18 18 -15 55 6 67 21 13 20 13 41 1z"/>
<path d="M4336 3931 c-25 -27 -17 -72 15 -90 24 -13 29 -13 53 2 47 31 27 107
-28 107 -13 0 -31 -9 -40 -19z m68 -7 c31 -31 13 -74 -31 -74 -16 0 -27 9 -35
26 -11 23 -10 29 11 45 28 23 35 23 55 3z"/>
<path d="M1831 3754 c-21 -27 -21 -30 -21 -1020 l0 -994 1690 0 1690 0 0 994
c0 990 0 993 -21 1020 l-20 26 -1649 0 -1649 0 -20 -26z m3259 -872 c0 -423
-3 -824 -7 -890 l-6 -122 -1577 0 -1577 0 -6 122 c-4 66 -7 467 -7 890 l0 768
1590 0 1590 0 0 -768z"/>
<path d="M2360 3070 l0 -250 685 0 685 0 0 250 0 250 -685 0 -685 0 0 -250z
m1320 -6 c0 -6 -9 -19 -20 -29 -16 -14 -20 -15 -20 -4 0 8 5 20 12 27 9 9 9
15 0 24 -7 7 -12 19 -12 28 0 17 39 -27 40 -46z m-1232 21 c-9 -19 -9 -28 0
-37 7 -7 12 -16 12 -20 0 -16 -18 -7 -33 16 -14 21 -14 26 -1 45 21 29 36 26
22 -4z"/>
<path d="M891 3364 c0 -11 3 -14 6 -6 3 7 2 16 -1 19 -3 4 -6 -2 -5 -13z"/>
<path d="M6081 3304 c0 -11 3 -14 6 -6 3 7 2 16 -1 19 -3 4 -6 -2 -5 -13z"/>
<path d="M891 3294 c0 -11 3 -14 6 -6 3 7 2 16 -1 19 -3 4 -6 -2 -5 -13z"/>
<path d="M5282 3238 c-17 -17 -15 -64 4 -82 27 -27 94 -13 94 19 0 8 6 15 14
15 10 0 5 10 -12 30 -28 32 -77 41 -100 18z m78 -13 c17 -20 4 -62 -21 -70
-15 -5 -28 -1 -42 14 -18 17 -19 24 -9 46 13 29 52 34 72 10z"/>
<path d="M1658 3205 c-7 -9 -18 -21 -24 -27 -8 -9 -4 -20 15 -40 33 -37 78
-36 100 3 13 24 13 29 -2 53 -20 30 -68 36 -89 11z m70 -7 c26 -26 8 -78 -27
-78 -18 0 -51 29 -51 46 0 34 54 56 78 32z"/>
<path d="M5538 3193 c7 -3 16 -2 19 1 4 3 -2 6 -13 5 -11 0 -14 -3 -6 -6z"/>
<path d="M5828 3193 c7 -3 16 -2 19 1 4 3 -2 6 -13 5 -11 0 -14 -3 -6 -6z"/>
<path d="M6048 3193 c7 -3 16 -2 19 1 4 3 -2 6 -13 5 -11 0 -14 -3 -6 -6z"/>
<path d="M978 3163 c7 -3 16 -2 19 1 4 3 -2 6 -13 5 -11 0 -14 -3 -6 -6z"/>
<path d="M1048 3163 c7 -3 16 -2 19 1 4 3 -2 6 -13 5 -11 0 -14 -3 -6 -6z"/>
<path d="M1268 3163 c7 -3 16 -2 19 1 4 3 -2 6 -13 5 -11 0 -14 -3 -6 -6z"/>
<path d="M1338 3163 c7 -3 16 -2 19 1 4 3 -2 6 -13 5 -11 0 -14 -3 -6 -6z"/>
<path d="M1558 3163 c7 -3 16 -2 19 1 4 3 -2 6 -13 5 -11 0 -14 -3 -6 -6z"/>
<path d="M1068 2883 c-3 -55 -4 -57 -35 -65 -39 -10 -41 -25 -11 -84 19 -40
25 -44 58 -44 20 0 45 7 56 15 10 8 29 15 41 15 19 0 22 7 26 48 l3 47 2 -47
c2 -42 5 -48 23 -48 15 0 19 4 15 16 -3 9 -6 33 -6 55 l0 39 -38 -6 c-35 -5
-41 -3 -70 30 -18 20 -32 48 -32 61 0 15 -6 25 -15 25 -10 0 -15 -15 -17 -57z"/>
<path d="M5630 2910 c-27 -27 -25 -54 5 -106 14 -23 22 -49 19 -57 -5 -15 21
-31 37 -21 5 3 9 13 9 22 0 9 12 35 25 57 14 22 25 50 25 63 0 31 -34 62 -70
62 -17 0 -39 -9 -50 -20z m108 -36 c-4 -3 -12 5 -18 18 -12 22 -12 22 6 6 10
-10 15 -20 12 -24z"/>
<path d="M6452 2789 c-146 -24 -270 -141 -308 -289 -43 -169 44 -354 205 -433
61 -30 73 -32 166 -32 93 0 105 2 166 32 80 39 150 111 187 191 23 49 27 70
27 152 0 82 -4 103 -27 153 -35 74 -117 160 -182 191 -43 20 -155 49 -175 45
-3 -1 -30 -5 -59 -10z m278 -379 l0 -150 -210 0 -210 0 0 150 0 150 210 0 210
0 0 -150z"/>
<path d="M6380 2491 c0 -27 19 -36 37 -18 18 18 9 37 -18 37 -12 0 -19 -7 -19
-19z"/>
<path d="M6531 2403 c-31 -44 -33 -49 -19 -73 12 -23 20 -25 87 -28 l73 -3
-47 68 c-27 37 -51 71 -55 76 -3 4 -21 -14 -39 -40z"/>
<path d="M6390 2345 l-31 -45 70 0 71 0 -32 45 c-18 25 -35 45 -39 45 -5 0
-22 -20 -39 -45z"/>
<path d="M5287 2452 c-24 -26 -21 -68 5 -86 32 -23 54 -20 76 9 11 14 25 25
31 25 6 0 11 5 11 10 0 6 -5 10 -11 10 -6 0 -20 11 -31 25 -23 29 -58 32 -81
7z m78 -42 c0 -12 -9 -29 -20 -36 -18 -12 -24 -11 -43 2 -12 8 -22 24 -22 34
0 10 10 26 22 34 19 13 25 14 43 2 11 -7 20 -24 20 -36z"/>
<path d="M1648 2422 c-14 -16 -21 -32 -16 -37 5 -6 14 -17 21 -26 22 -31 54
-33 82 -5 30 30 32 49 5 76 -28 28 -62 25 -92 -8z m73 8 c21 -12 25 -50 7 -68
-19 -19 -56 -14 -68 8 -15 28 3 61 38 69 2 1 12 -4 23 -9z"/>
<path d="M5460 2410 c0 -5 5 -10 10 -10 6 0 10 5 10 10 0 6 -4 10 -10 10 -5 0
-10 -4 -10 -10z"/>
<path d="M5530 2410 c0 -5 5 -10 10 -10 6 0 10 5 10 10 0 6 -4 10 -10 10 -5 0
-10 -4 -10 -10z"/>
<path d="M5610 2410 c0 -5 5 -10 10 -10 6 0 10 5 10 10 0 6 -4 10 -10 10 -5 0
-10 -4 -10 -10z"/>
<path d="M5680 2410 c0 -5 5 -10 10 -10 6 0 10 5 10 10 0 6 -4 10 -10 10 -5 0
-10 -4 -10 -10z"/>
<path d="M5750 2410 c0 -5 5 -10 10 -10 6 0 10 5 10 10 0 6 -4 10 -10 10 -5 0
-10 -4 -10 -10z"/>
<path d="M5900 2410 c0 -5 5 -10 10 -10 6 0 10 5 10 10 0 6 -4 10 -10 10 -5 0
-10 -4 -10 -10z"/>
<path d="M5970 2410 c0 -5 5 -10 10 -10 6 0 10 5 10 10 0 6 -4 10 -10 10 -5 0
-10 -4 -10 -10z"/>
<path d="M6040 2410 c0 -5 5 -10 10 -10 6 0 10 5 10 10 0 6 -4 10 -10 10 -5 0
-10 -4 -10 -10z"/>
<path d="M1188 2393 c7 -3 16 -2 19 1 4 3 -2 6 -13 5 -11 0 -14 -3 -6 -6z"/>
<path d="M1478 2393 c7 -3 16 -2 19 1 4 3 -2 6 -13 5 -11 0 -14 -3 -6 -6z"/>
<path d="M1393 1940 c-26 -11 -63 -66 -63 -95 0 -22 100 -235 110 -235 4 0 28
45 53 101 63 135 62 190 -3 224 -32 17 -64 18 -97 5z m75 -56 c24 -17 30 -62
10 -82 -20 -20 -65 -14 -82 10 -21 30 -20 44 4 68 24 24 38 25 68 4z"/>
<path d="M5480 1906 c0 -20 7 -25 38 -31 115 -21 222 -137 222 -241 0 -20 5
-24 28 -24 l29 0 -8 53 c-9 70 -40 129 -95 183 -47 45 -132 84 -184 84 -25 0
-30 -4 -30 -24z"/>
<path d="M5480 1776 c0 -21 8 -29 40 -42 43 -17 74 -53 85 -97 9 -35 55 -40
55 -5 0 67 -73 148 -147 163 -31 6 -33 5 -33 -19z"/>
<path d="M5474 1666 c-3 -8 -4 -23 -2 -33 5 -25 61 -25 66 0 7 37 -51 67 -64
33z"/>
<path d="M2308 1349 c-43 -25 -42 -90 1 -104 12 -3 21 -14 22 -23 0 -14 2 -14
6 -2 4 8 17 23 30 33 28 23 30 60 3 87 -22 22 -37 24 -62 9z m64 -34 c10 -22
9 -29 -10 -47 -18 -19 -25 -20 -47 -10 -16 8 -25 20 -25 35 0 50 62 66 82 22z"/>
<path d="M4942 1344 c-30 -21 -29 -67 1 -91 13 -10 26 -25 30 -33 4 -12 6 -11
6 3 1 9 5 17 10 17 19 0 41 32 41 60 0 28 -30 60 -55 60 -6 0 -21 -7 -33 -16z
m72 -26 c12 -20 2 -44 -27 -62 -19 -12 -57 17 -57 44 0 40 62 53 84 18z"/>
<path d="M6022 1274 c-29 -7 -67 -21 -85 -30 -182 -93 -259 -323 -169 -507
144 -292 560 -286 694 11 101 223 -38 486 -283 532 -66 13 -92 12 -157 -6z
m171 -245 l57 -13 0 -41 c-1 -102 -39 -178 -104 -209 -32 -15 -39 -15 -64 -2
-16 8 -43 31 -60 50 -30 35 -38 64 -45 161 l-2 39 53 12 c30 7 56 15 60 19 4
3 16 4 27 2 11 -3 46 -11 78 -18z"/>
<path d="M2331 1004 c0 -11 3 -14 6 -6 3 7 2 16 -1 19 -3 4 -6 -2 -5 -13z"/>
<path d="M4971 1004 c0 -11 3 -14 6 -6 3 7 2 16 -1 19 -3 4 -6 -2 -5 -13z"/>
<path d="M2331 934 c0 -11 3 -14 6 -6 3 7 2 16 -1 19 -3 4 -6 -2 -5 -13z"/>
<path d="M4971 934 c0 -11 3 -14 6 -6 3 7 2 16 -1 19 -3 4 -6 -2 -5 -13z"/>
<path d="M1360 880 c0 -5 5 -10 10 -10 6 0 10 5 10 10 0 6 -4 10 -10 10 -5 0
-10 -4 -10 -10z"/>
<path d="M1430 880 c0 -5 5 -10 10 -10 6 0 10 5 10 10 0 6 -4 10 -10 10 -5 0
-10 -4 -10 -10z"/>
<path d="M1510 880 c0 -5 5 -10 10 -10 6 0 10 5 10 10 0 6 -4 10 -10 10 -5 0
-10 -4 -10 -10z"/>
<path d="M1580 880 c0 -5 5 -10 10 -10 6 0 10 5 10 10 0 6 -4 10 -10 10 -5 0
-10 -4 -10 -10z"/>
<path d="M1650 880 c0 -5 5 -10 10 -10 6 0 10 5 10 10 0 6 -4 10 -10 10 -5 0
-10 -4 -10 -10z"/>
<path d="M1720 880 c0 -5 5 -10 10 -10 6 0 10 5 10 10 0 6 -4 10 -10 10 -5 0
-10 -4 -10 -10z"/>
<path d="M1800 880 c0 -5 5 -10 10 -10 6 0 10 5 10 10 0 6 -4 10 -10 10 -5 0
-10 -4 -10 -10z"/>
<path d="M1870 880 c0 -5 5 -10 10 -10 6 0 10 5 10 10 0 6 -4 10 -10 10 -5 0
-10 -4 -10 -10z"/>
<path d="M1940 880 c0 -5 5 -10 10 -10 6 0 10 5 10 10 0 6 -4 10 -10 10 -5 0
-10 -4 -10 -10z"/>
<path d="M2010 880 c0 -5 5 -10 10 -10 6 0 10 5 10 10 0 6 -4 10 -10 10 -5 0
-10 -4 -10 -10z"/>
<path d="M2090 880 c0 -5 5 -10 10 -10 6 0 10 5 10 10 0 6 -4 10 -10 10 -5 0
-10 -4 -10 -10z"/>
<path d="M2160 880 c0 -5 5 -10 10 -10 6 0 10 5 10 10 0 6 -4 10 -10 10 -5 0
-10 -4 -10 -10z"/>
<path d="M2230 880 c0 -5 5 -10 10 -10 6 0 10 5 10 10 0 6 -4 10 -10 10 -5 0
-10 -4 -10 -10z"/>
<path d="M2300 880 c0 -5 5 -10 10 -10 6 0 10 5 10 10 0 6 -4 10 -10 10 -5 0
-10 -4 -10 -10z"/>
<path d="M5108 853 c7 -3 16 -2 19 1 4 3 -2 6 -13 5 -11 0 -14 -3 -6 -6z"/>
<path d="M5398 853 c7 -3 16 -2 19 1 4 3 -2 6 -13 5 -11 0 -14 -3 -6 -6z"/>
<path d="M5618 853 c7 -3 16 -2 19 1 4 3 -2 6 -13 5 -11 0 -14 -3 -6 -6z"/>
</g>
</svg>
