<?xml version="1.0" standalone="no"?>
<!DOCTYPE svg PUBLIC "-//W3C//DTD SVG 20010904//EN"
 "http://www.w3.org/TR/2001/REC-SVG-20010904/DTD/svg10.dtd">
<svg version="1.0" xmlns="http://www.w3.org/2000/svg"
 width="600.000000pt" height="600.000000pt" viewBox="0 0 600.000000 600.000000"
 preserveAspectRatio="xMidYMid meet">

<g transform="translate(0.000000,600.000000) scale(0.100000,-0.100000)"
fill="#000000" stroke="none">
<path d="M2760 4486 c-327 -59 -590 -195 -820 -426 -214 -213 -345 -453 -412
-751 -20 -90 -23 -131 -23 -309 0 -178 3 -219 23 -309 67 -298 198 -538 412
-751 228 -229 494 -367 811 -421 170 -29 422 -23 579 14 291 69 521 197 730
407 216 215 352 467 417 770 26 121 26 459 0 580 -65 303 -201 554 -417 770
-213 213 -461 349 -760 415 -102 23 -436 29 -540 11z m-520 -898 c16 -24 116
-179 222 -345 106 -166 198 -310 204 -320 9 -14 11 5 7 82 -3 55 -2 216 2 358
l7 257 49 0 49 0 0 -430 0 -430 -63 0 -63 0 -124 193 c-68 105 -173 268 -232
361 l-108 168 0 -361 0 -362 -52 3 -53 3 -3 420 c-1 231 0 426 3 432 3 9 26
13 65 13 60 0 61 0 90 -42z m1200 -13 l0 -45 -170 0 -170 0 0 -140 0 -140 155
0 155 0 0 -50 0 -50 -155 0 -155 0 0 -92 c0 -51 3 -117 6 -145 l7 -53 174 0
174 0 -3 -47 -3 -48 -227 -3 -228 -2 0 430 0 430 220 0 220 0 0 -45z m690 0
l0 -45 -125 0 -125 0 0 -385 0 -385 -50 0 -50 0 0 385 0 385 -125 0 -125 0 0
45 0 45 300 0 300 0 0 -45z m-2243 -707 c13 -12 23 -33 23 -47 0 -32 -37 -71
-67 -71 -30 0 -73 42 -73 70 0 28 43 70 71 70 13 0 33 -10 46 -22z m806 -309
c30 -8 37 -14 37 -36 0 -20 -3 -24 -17 -17 -10 4 -43 10 -73 12 -45 3 -61 -1
-89 -20 -94 -64 -95 -213 -1 -276 29 -20 44 -23 85 -19 28 3 60 8 73 12 18 6
22 4 22 -14 0 -28 -35 -41 -112 -41 -119 0 -188 72 -188 196 1 151 119 243
263 203z m324 -142 c59 -65 57 -156 -7 -219 -34 -35 -42 -38 -92 -38 -89 0
-138 53 -138 150 0 66 24 107 75 132 61 29 121 19 162 -25z m468 29 c41 -17
65 -60 65 -116 l0 -40 -99 0 -98 0 5 -25 c10 -56 85 -82 145 -51 26 14 27 14
27 -10 0 -30 -31 -44 -100 -44 -37 0 -55 6 -79 25 -79 67 -59 221 33 261 40
17 59 17 101 0z m-305 -16 l0 -20 20 20 c11 11 33 20 50 20 25 0 30 -4 30 -25
0 -22 -4 -24 -23 -20 -15 4 -32 -1 -48 -13 -22 -18 -24 -29 -29 -124 -5 -97
-6 -103 -27 -106 -23 -3 -23 -3 -23 142 l0 146 25 0 c18 0 25 -5 25 -20z"/>
<path d="M2872 2403 c-38 -15 -54 -111 -27 -162 25 -50 96 -58 136 -15 34 37
34 121 0 158 -24 25 -73 34 -109 19z"/>
<path d="M3382 2387 c-41 -44 -30 -57 48 -57 60 0 70 2 70 18 0 59 -76 84
-118 39z"/>
</g>
</svg>
